<svg width="14" height="13" viewBox="0 0 14 13" fill="none" xmlns="http://www.w3.org/2000/svg">
<path d="M7.00583 0.5C5.79133 0.5 4.816 0.511412 4.82242 0.526819C4.82825 0.538231 5.81875 2.23923 7.02392 4.30428L9.21725 8.05549H11.4106C12.6245 8.05549 13.5998 8.04408 13.5934 8.02867C13.5905 8.01726 12.5971 6.31626 11.3913 4.25121L9.198 0.5H7.00583ZM4.22917 1.48716C3.51767 2.68587 2.81183 3.88779 2.11167 5.09287L0 8.70713L1.1025 10.589L2.20208 12.4703L4.31375 8.85549L6.42425 5.24351L5.32758 3.3679C4.725 2.3368 4.23208 1.49058 4.22917 1.48716ZM5.54692 8.70713L5.4285 8.90571C5.362 9.01869 4.8685 9.85977 4.33183 10.7813C4.004 11.3475 3.67383 11.9124 3.34133 12.476C3.3355 12.4909 5.23133 12.5 7.55417 12.5H11.7798L12.8275 10.6986C13.4062 9.70913 13.9067 8.85549 13.9393 8.80243L14 8.70713H9.77142H5.54692Z" fill="white"/>
</svg>
