<svg width="30" height="30" viewBox="0 0 30 30" fill="none" xmlns="http://www.w3.org/2000/svg">
<path d="M15 0C6.7125 0 0 6.88678 0 15.3808C0 22.1779 4.2975 27.9419 10.2563 29.9734C11.0063 30.1183 11.2812 29.6427 11.2812 29.2339C11.2812 28.8686 11.2688 27.9009 11.2625 26.6191C7.09 27.5471 6.21 24.5555 6.21 24.5555C5.5275 22.7803 4.54125 22.3061 4.54125 22.3061C3.1825 21.3525 4.64625 21.3717 4.64625 21.3717C6.1525 21.4794 6.94375 22.9559 6.94375 22.9559C8.28125 25.3079 10.455 24.6286 11.3125 24.2351C11.4475 23.2405 11.8338 22.5624 12.2625 22.1779C8.93125 21.7934 5.43 20.4706 5.43 14.5772C5.43 12.8981 6.01125 11.5267 6.97375 10.45C6.805 10.0616 6.29875 8.49792 7.105 6.37921C7.105 6.37921 8.36125 5.96649 11.23 7.95574C12.43 7.61352 13.705 7.44433 14.98 7.43664C16.255 7.44433 17.53 7.61352 18.73 7.95574C21.58 5.96649 22.8362 6.37921 22.8362 6.37921C23.6425 8.49792 23.1362 10.0616 22.9862 10.45C23.9425 11.5267 24.5238 12.8981 24.5238 14.5772C24.5238 20.486 21.0175 21.787 17.68 22.1651C18.205 22.6265 18.6925 23.5699 18.6925 25.0105C18.6925 27.069 18.6737 28.7224 18.6737 29.2223C18.6737 29.6261 18.9363 30.1067 19.705 29.9529C25.7062 27.9355 30 22.1676 30 15.3808C30 6.88678 23.2837 0 15 0Z" fill="white"/>
</svg>
