<svg width="24" height="25" viewBox="0 0 24 25" fill="none" xmlns="http://www.w3.org/2000/svg">
<g clip-path="url(#clip0_20_5)">
<path d="M12 0.796997C5.37 0.796997 0 6.17 0 12.797C0 18.1 3.438 22.597 8.205 24.182C8.805 24.295 9.025 23.924 9.025 23.605C9.025 23.32 9.015 22.565 9.01 21.565C5.672 22.289 4.968 19.955 4.968 19.955C4.422 18.57 3.633 18.2 3.633 18.2C2.546 17.456 3.717 17.471 3.717 17.471C4.922 17.555 5.555 18.707 5.555 18.707C6.625 20.542 8.364 20.012 9.05 19.705C9.158 18.929 9.467 18.4 9.81 18.1C7.145 17.8 4.344 16.768 4.344 12.17C4.344 10.86 4.809 9.79 5.579 8.95C5.444 8.647 5.039 7.427 5.684 5.774C5.684 5.774 6.689 5.452 8.984 7.004C9.944 6.737 10.964 6.605 11.984 6.599C13.004 6.605 14.024 6.737 14.984 7.004C17.264 5.452 18.269 5.774 18.269 5.774C18.914 7.427 18.509 8.647 18.389 8.95C19.154 9.79 19.619 10.86 19.619 12.17C19.619 16.78 16.814 17.795 14.144 18.09C14.564 18.45 14.954 19.186 14.954 20.31C14.954 21.916 14.939 23.206 14.939 23.596C14.939 23.911 15.149 24.286 15.764 24.166C20.565 22.592 24 18.092 24 12.797C24 6.17 18.627 0.796997 12 0.796997Z" fill="#181717"/>
</g>
<defs>
<clipPath id="clip0_20_5">
<rect width="24" height="24" fill="white" transform="translate(0 0.5)"/>
</clipPath>
</defs>
</svg>
