<svg width="93" height="29" viewBox="0 0 93 29" fill="none" xmlns="http://www.w3.org/2000/svg">
<path d="M89.6644 22.75L86.5444 17.854L83.5444 22.75H81.2644L85.5124 16.222L81.2644 9.59799H83.7364L86.8564 14.47L89.8324 9.59799H92.1124L87.8884 16.102L92.1364 22.75H89.6644Z" fill="black"/>
<path d="M79.9176 15.67C79.9176 16.086 79.8936 16.526 79.8456 16.99H69.3336C69.4136 18.286 69.8536 19.302 70.6536 20.038C71.4696 20.758 72.4536 21.118 73.6056 21.118C74.5496 21.118 75.3336 20.902 75.9576 20.47C76.5976 20.022 77.0456 19.43 77.3016 18.694H79.6536C79.3016 19.958 78.5976 20.99 77.5416 21.79C76.4856 22.574 75.1736 22.966 73.6056 22.966C72.3576 22.966 71.2376 22.686 70.2456 22.126C69.2696 21.566 68.5016 20.774 67.9416 19.75C67.3816 18.71 67.1016 17.51 67.1016 16.15C67.1016 14.79 67.3736 13.598 67.9176 12.574C68.4616 11.55 69.2216 10.766 70.1976 10.222C71.1896 9.66202 72.3256 9.38202 73.6056 9.38202C74.8536 9.38202 75.9576 9.65402 76.9176 10.198C77.8776 10.742 78.6136 11.494 79.1256 12.454C79.6536 13.398 79.9176 14.47 79.9176 15.67ZM77.6616 15.214C77.6616 14.382 77.4776 13.67 77.1096 13.078C76.7416 12.47 76.2376 12.014 75.5976 11.71C74.9736 11.39 74.2776 11.23 73.5096 11.23C72.4056 11.23 71.4616 11.582 70.6776 12.286C69.9096 12.99 69.4696 13.966 69.3576 15.214H77.6616Z" fill="black"/>
<path d="M61.8394 11.398V19.15C61.8394 19.79 61.9754 20.246 62.2474 20.518C62.5194 20.774 62.9914 20.902 63.6634 20.902H65.2714V22.75H63.3034C62.0874 22.75 61.1754 22.47 60.5674 21.91C59.9594 21.35 59.6554 20.43 59.6554 19.15V11.398H57.9514V9.59798H59.6554V6.28598H61.8394V9.59798H65.2714V11.398H61.8394Z" fill="black"/>
<path d="M52.4063 11.734C52.7903 10.982 53.3343 10.398 54.0383 9.98203C54.7583 9.56603 55.6303 9.35803 56.6543 9.35803V11.614H56.0783C53.6303 11.614 52.4063 12.942 52.4063 15.598V22.75H50.2223V9.59803H52.4063V11.734Z" fill="black"/>
<path d="M47.3394 15.67C47.3394 16.086 47.3154 16.526 47.2674 16.99H36.7554C36.8354 18.286 37.2754 19.302 38.0754 20.038C38.8914 20.758 39.8754 21.118 41.0274 21.118C41.9714 21.118 42.7554 20.902 43.3794 20.47C44.0194 20.022 44.4674 19.43 44.7234 18.694H47.0754C46.7234 19.958 46.0194 20.99 44.9634 21.79C43.9074 22.574 42.5954 22.966 41.0274 22.966C39.7794 22.966 38.6594 22.686 37.6674 22.126C36.6914 21.566 35.9234 20.774 35.3634 19.75C34.8034 18.71 34.5234 17.51 34.5234 16.15C34.5234 14.79 34.7954 13.598 35.3394 12.574C35.8834 11.55 36.6434 10.766 37.6194 10.222C38.6114 9.66202 39.7474 9.38202 41.0274 9.38202C42.2754 9.38202 43.3794 9.65402 44.3394 10.198C45.2994 10.742 46.0354 11.494 46.5474 12.454C47.0754 13.398 47.3394 14.47 47.3394 15.67ZM45.0834 15.214C45.0834 14.382 44.8994 13.67 44.5314 13.078C44.1634 12.47 43.6594 12.014 43.0194 11.71C42.3954 11.39 41.6994 11.23 40.9314 11.23C39.8274 11.23 38.8834 11.582 38.0994 12.286C37.3314 12.99 36.8914 13.966 36.7794 15.214H45.0834Z" fill="black"/>
<path d="M22.4447 6.02203L16.1327 22.75H13.6127L7.30069 6.02203H9.62869L14.8847 20.446L20.1407 6.02203H22.4447Z" fill="black"/>
<rect x="1.52271" y="1" width="27" height="27" stroke="black" stroke-width="1.5" stroke-dasharray="3 3"/>
</svg>
