<svg width="12" height="9" viewBox="0 0 12 9" fill="none" xmlns="http://www.w3.org/2000/svg">
<path d="M11.749 1.593C11.6812 1.33764 11.5475 1.10457 11.3613 0.917132C11.1751 0.729695 10.9429 0.594471 10.688 0.525C9.7525 0.2725 6 0.2725 6 0.2725C6 0.2725 2.2475 0.2725 1.3115 0.525C1.0567 0.594593 0.824647 0.729867 0.638539 0.917291C0.452431 1.10472 0.318796 1.33772 0.251 1.593C0 2.535 0 4.5 0 4.5C0 4.5 0 6.465 0.251 7.407C0.318793 7.66236 0.452488 7.89543 0.638696 8.08287C0.824904 8.27031 1.05709 8.40553 1.312 8.475C2.2475 8.7275 6 8.7275 6 8.7275C6 8.7275 9.7525 8.7275 10.6885 8.475C10.9434 8.40558 11.1756 8.27037 11.3619 8.08292C11.5481 7.89548 11.6818 7.66238 11.7495 7.407C12 6.465 12 4.5 12 4.5C12 4.5 12 2.535 11.749 1.593ZM4.7725 6.284V2.716L7.909 4.5L4.7725 6.284Z" fill="white"/>
</svg>
